HIERARCHY
ROOT simHips
{
  OFFSET 2.03452 97.5883 -7.47181
  CHANNELS 6 Xposition Yposition Zposition Zrotation Xrotation Yrotation
  JOINT simSpine
  {
    OFFSET -0.000355721 21.3001 -0.016921
    CHANNELS 3 Zrotation Xrotation Yrotation
    JOINT simLeftArm
    {
      OFFSET 13.5181 21.3012 0
      CHANNELS 3 Zrotation Xrotation Yrotation
      JOINT simLeftForeArm
      {
        OFFSET 24.5783 0 0
        CHANNELS 3 Zrotation Xrotation Yrotation
        JOINT simLeftHand
        {
          OFFSET 24.5783 0 0
          CHANNELS 3 Zrotation Xrotation Yrotation
          End Site
          {
            OFFSET 7.32568 1.52588e-005 0.0169305
          }
        }
      }
    }
    JOINT simHead
    {
      OFFSET 0 27.4458 -0.00489235
      CHANNELS 3 Zrotation Xrotation Yrotation
      End Site
      {
        OFFSET 0 0 0
      }
    }
    JOINT simRightArm
    {
      OFFSET -13.5174 21.3012 0
      CHANNELS 3 Zrotation Xrotation Yrotation
      JOINT simRightForeArm
      {
        OFFSET -24.5783 0 0
        CHANNELS 3 Zrotation Xrotation Yrotation
        JOINT simRightHand
        {
          OFFSET -24.5783 0 0
          CHANNELS 3 Zrotation Xrotation Yrotation
          End Site
          {
            OFFSET -7.32568 1.52588e-005 0.0169305
          }
        }
      }
    }
  }
  JOINT simRightUpLeg
  {
    OFFSET -8.44614 -9.41038 0.835684
    CHANNELS 3 Zrotation Xrotation Yrotation
    JOINT simRightLeg
    {
      OFFSET 0 -40.9639 0
      CHANNELS 3 Zrotation Xrotation Yrotation
      JOINT simRightFoot
      {
        OFFSET 0 -40.9639 0
        CHANNELS 3 Zrotation Xrotation Yrotation
        End Site
        {
          OFFSET 0.50614 -9.67405 14.6709
        }
      }
    }
  }
  JOINT simLeftUpLeg
  {
    OFFSET 8.44614 -9.41038 0.835684
    CHANNELS 3 Zrotation Xrotation Yrotation
    JOINT simLeftLeg
    {
      OFFSET 0 -40.9639 0
      CHANNELS 3 Zrotation Xrotation Yrotation
      JOINT simLeftFoot
      {
        OFFSET 0 -40.9639 0
        CHANNELS 3 Zrotation Xrotation Yrotation
        End Site
        {
          OFFSET -0.50614 -9.67405 14.6709
        }
      }
    }
  }
}
MOTION
Frames:	11
Frame Time:	0.0333333
-2.06273 97.4782 -7.34911 2.26815 -3.93998 2.32503 -1.66649 0.980095 1.97009 -71.8731 48.7346 -11.1053 -0.00247937 -9.50237e-006 -8.64283 4.72898 -1.31394 -10.3754 -2.39657 18.1626 5.29678 65.6557 59.8628 14.4556 -4.01916e-005 -1.71304e-006 5.33555 3.79578 -2.81003 9.76124 -5.17385 -9.68071 -9.04578 -2.6265 30.4506 -6.06234 5.32785 -15.9105 -5.21082 3.04714 -8.28348 12.7716 1.9687 26.5389 -3.26813 -3.57543 -13.5602 2.49903 
-2.04965 97.4794 -7.37471 2.26902 -4.05555 2.36645 -1.67028 1.1113 1.93299 -71.8728 48.921 -11.1863 -0.00247937 -9.50307e-006 -8.61516 4.7347 -1.5438 -10.344 -2.37534 18.0752 5.07297 65.8709 59.6069 14.2339 -4.01895e-005 -1.71284e-006 5.40554 3.72809 -2.55643 9.55353 -5.20131 -9.54574 -9.17281 -2.63717 30.419 -6.07465 5.34446 -15.8862 -5.11338 3.01843 -8.17255 12.7322 1.99244 26.5217 -3.21856 -3.58059 -13.5428 2.48017 
-2.03421 97.4792 -7.4059 2.25656 -4.18828 2.41478 -1.66505 1.20737 1.91241 -71.9283 48.988 -11.1662 -0.00247938 -9.50137e-006 -8.68255 4.74038 -1.48626 -10.2973 -2.42637 18.0372 5.07625 65.944 59.544 14.1415 -4.01889e-005 -1.71278e-006 5.42694 3.69504 -2.45541 9.53128 -5.20105 -9.39351 -9.30912 -2.6787 30.3788 -6.08255 5.37436 -15.8539 -5.01679 3.00556 -8.06104 12.6753 2.01777 26.527 -3.1771 -3.58855 -13.5329 2.44797 
-2.02583 97.4727 -7.43592 2.22946 -4.28755 2.43288 -1.65367 1.27453 1.91025 -72.0118 48.9741 -11.0713 -0.0024794 -9.49761e-006 -8.82993 4.74117 -1.21196 -10.2386 -2.52579 18.0393 5.24939 65.9267 59.6084 14.1366 -4.01892e-005 -1.71281e-006 5.41625 3.68597 -2.43426 9.63902 -5.16115 -9.30459 -9.39223 -2.74511 30.3723 -6.05726 5.40099 -15.8351 -4.97246 3.03376 -8.00522 12.6442 2.0269 26.5849 -3.17856 -3.59227 -13.5509 2.42896 
-2.02393 97.4551 -7.45828 2.19367 -4.3402 2.40806 -1.63951 1.31601 1.9313 -72.0966 48.9143 -10.9234 -0.00247944 -9.49195e-006 -9.04692 4.73194 -0.77507 -10.1716 -2.64989 18.0713 5.54159 65.8677 59.7397 14.1819 -4.019e-005 -1.71289e-006 5.38836 3.69231 -2.41921 9.82819 -5.10646 -9.30073 -9.40386 -2.79572 30.4308 -5.98729 5.40367 -15.8541 -5.0134 3.09272 -8.02209 12.6517 2.03127 26.7146 -3.21141 -3.59178 -13.6117 2.42422 
-2.02481 97.4264 -7.47122 2.15528 -4.36114 2.34364 -1.62579 1.34185 1.97542 -72.1384 48.8764 -10.7659 -0.00247948 -9.48479e-006 -9.31455 4.70476 -0.302823 -10.0946 -2.76484 18.1057 5.86577 65.8278 59.8546 14.2278 -4.01907e-005 -1.71295e-006 5.36477 3.6975 -2.31679 10.02 -5.06348 -9.36783 -9.3745 -2.80672 30.5627 -5.88234 5.37522 -15.9145 -5.11862 3.15766 -8.09611 12.6977 2.05744 26.9116 -3.2239 -3.60967 -13.7121 2.40427 
-2.02641 97.3947 -7.47935 2.11539 -4.38731 2.2588 -1.6138 1.36512 2.03638 -72.0896 48.9408 -10.651 -0.00247953 -9.47651e-006 -9.61465 4.65024 0.0409529 -9.99616 -2.84028 18.1042 6.12959 65.8448 59.8843 14.2424 -4.01907e-005 -1.71296e-006 5.36439 3.68221 -2.05502 10.1379 -5.03513 -9.43391 -9.34999 -2.78846 30.7102 -5.76994 5.32953 -15.9874 -5.21976 3.21175 -8.17491 12.7693 2.11887 27.1286 -3.1764 -3.65765 -13.8211 2.34413 
-2.02779 97.3712 -7.48991 2.07307 -4.45196 2.18464 -1.60128 1.3971 2.10345 -71.9186 49.1675 -10.6215 -0.00247958 -9.46748e-006 -9.9318 4.56125 0.116889 -9.86115 -2.86215 18.0294 6.2691 65.9163 59.8129 14.2225 -4.01899e-005 -1.71287e-006 5.3939 3.63273 -1.61968 10.143 -5.00703 -9.42757 -9.35041 -2.76846 30.8022 -5.68193 5.29015 -16.0344 -5.25615 3.25566 -8.18454 12.8389 2.19083 27.2872 -3.08475 -3.72049 -13.9017 2.25728 
-2.02723 97.3605 -7.50733 2.03275 -4.5543 2.14678 -1.58334 1.44366 2.16479 -71.6237 49.5668 -10.6994 -0.00247964 -9.45812e-006 -10.2504 4.43507 -0.133344 -9.68107 -2.8387 17.857 6.27063 65.9868 59.6872 14.2085 -4.01884e-005 -1.71273e-006 5.4443 3.54747 -1.06494 10.0551 -4.97542 -9.33871 -9.36622 -2.75693 30.8158 -5.63086 5.26732 -16.0415 -5.23449 3.29582 -8.12722 12.8748 2.23517 27.3728 -3.00629 -3.76259 -13.9398 2.19363 
-2.02193 97.3572 -7.53121 2.00452 -4.66261 2.14543 -1.55391 1.50612 2.21191 -71.2365 50.0864 -10.8845 -0.00247969 -9.44916e-006 -10.5461 4.27393 -0.664098 -9.46773 -2.79716 17.5848 6.17265 65.974 59.5943 14.2631 -4.01868e-005 -1.71258e-006 5.4955 3.43693 -0.488797 9.94623 -4.95635 -9.22175 -9.37534 -2.74044 30.7932 -5.60453 5.25335 -16.0294 -5.21402 3.32875 -8.04093 12.8675 2.23097 27.4062 -2.97518 -3.76265 -13.9504 2.19295 
-2.00953 97.3512 -7.55861 1.99593 -4.74389 2.15318 -1.5075 1.58534 2.24254 -70.8059 50.626 -11.1652 -0.00247972 -9.44176e-006 -10.7845 4.08048 -1.34833 -9.25924 -2.77338 17.2359 6.04848 65.8057 59.6143 14.4423 -4.01859e-005 -1.71249e-006 5.52762 3.32025 0.016918 9.91007 -4.96591 -9.15255 -9.35317 -2.70714 30.8053 -5.59112 5.24098 -16.0289 -5.23235 3.33811 -7.99228 12.843 2.20973 27.4492 -2.96602 -3.73819 -13.962 2.2389 
